<?xml version="1.0" encoding="utf-8"?>
<!-- Generator: Adobe Illustrator 22.1.0, SVG Export Plug-In . SVG Version: 6.00 Build 0)  -->
<svg version="1.1" id="レイヤー_1" xmlns="http://www.w3.org/2000/svg" xmlns:xlink="http://www.w3.org/1999/xlink" x="0px"
	 y="0px" viewBox="0 0 66.6 66.6" style="enable-background:new 0 0 66.6 66.6;" xml:space="preserve">
<style type="text/css">
	.st0{fill:none;}
</style>
<title>taxi</title>
<g id="レイヤー_2_1_">
	<g id="_">
		<g id="_1">
			<rect class="st0" width="66.6" height="66.6"/>
		</g>
		<g id="バス">
			<path d="M50,36.9c-2.8,0-5.1,2.3-5.1,5.1c0,2.8,2.3,5.1,5.1,5.1c2.8,0,5.1-2.3,5.1-5.1C55.1,39.2,52.8,36.9,50,36.9
				C50,36.9,50,36.9,50,36.9z M50,43.5c-0.8,0-1.5-0.7-1.5-1.5s0.7-1.5,1.5-1.5s1.5,0.7,1.5,1.5c0,0,0,0,0,0
				C51.5,42.8,50.8,43.5,50,43.5z"/>
			<path d="M18.8,36.9c-2.8,0-5.1,2.3-5.1,5.1s2.3,5.1,5.1,5.1c2.8,0,5.1-2.3,5.1-5.1C23.9,39.2,21.6,36.9,18.8,36.9
				C18.8,36.9,18.8,36.9,18.8,36.9z M18.8,43.5c-0.8,0-1.5-0.7-1.5-1.5c0-0.8,0.7-1.5,1.5-1.5c0.8,0,1.5,0.7,1.5,1.5c0,0,0,0,0,0
				C20.2,42.8,19.6,43.5,18.8,43.5z"/>
			<path d="M33.1,35.5c-0.1,0.3-0.6,2.2-0.6,2.2h1.3C33.8,37.7,33.2,35.8,33.1,35.5L33.1,35.5z"/>
			<path d="M59.1,32.2c-2-0.3-3.8-1.4-5.2-2.9l-4.1-4.9c-0.8-1.1-2.2-1.7-3.5-1.7H29.4c-1.1,0-2.1,0.4-2.9,1.1l-8.7,7.5
				C16.4,32.6,4.4,33,4.4,38.2v0.2c-0.6,0.3-0.9,0.9-0.9,1.5V41c0,0.9,0.8,1.7,2.3,1.7h6.7c0-0.2,0-0.5,0-0.7c0-3.5,2.8-6.4,6.3-6.4
				s6.4,2.8,6.4,6.3c0,0,0,0,0,0c0,0.2,0,0.5,0,0.7h18.5c0-0.2,0-0.5,0-0.7c0-3.5,2.8-6.3,6.3-6.3c3.5,0,6.4,2.8,6.4,6.3
				c0,0.2,0,0.5,0,0.7h2.5c1.8,0,3.7-0.5,3.7-2.9v-3.4C62.6,34.4,61.1,32.6,59.1,32.2z M10.4,36.2l-0.8,1.2
				c-0.3,0.4-0.8,0.7-1.3,0.7H6.2c-0.5,0-0.6-0.3-0.4-0.7l0.8-1.2C7,35.8,7.5,35.6,8,35.6h2C10.5,35.6,10.6,35.9,10.4,36.2
				L10.4,36.2z M22.4,32.1l6.6-5.8c0.1-0.1,0.2-0.1,0.4-0.1h7.8v6L22.4,32.1z M40.3,32.1v-6h6c0.2,0,0.4,0.1,0.5,0.2l4.1,5.3
				c0.1,0.1,0.2,0.3,0.3,0.4L40.3,32.1z"/>
		</g>
	</g>
</g>
</svg>
