<?xml version="1.0" encoding="utf-8"?>
<!-- Generator: Adobe Illustrator 22.1.0, SVG Export Plug-In . SVG Version: 6.00 Build 0)  -->
<svg version="1.1" id="レイヤー_1" xmlns="http://www.w3.org/2000/svg" xmlns:xlink="http://www.w3.org/1999/xlink" x="0px"
	 y="0px" viewBox="0 0 136.9 67.4" style="enable-background:new 0 0 136.9 67.4;" xml:space="preserve">
<style type="text/css">
	.st0{fill:#F7F8F8;}
</style>
<title>day1-logo</title>
<g id="レイヤー_2_1_">
	<g id="レイヤー_1-2">
		<g id="DAY1">
			<g id="DAY1-2">
				<path class="st0" d="M0,0h15c8.7,0,13,4.7,13,14.2v39.1c0,9.4-4.5,14.1-13.6,14.2H0V0z M9.7,9.6v48.3H14c2.8,0,4.2-1.5,4.2-4.6
					V14.2c0-3.1-1.4-4.6-4.2-4.6H9.7z"/>
				<path class="st0" d="M63.3,43.5l3.2,23.9h-9.8l-1.9-14.3h-9.9L43,67.4h-9.8l3.2-23.8L43.2,0h13.3L63.3,43.5z M53.5,43.5l-3.7-28
					l-3.7,28H53.5z"/>
				<path class="st0" d="M79.6,0l6.6,26.3L92.8,0h10.3L91.4,38.3l-0.3,0.8v28.4h-9.7V39.1L81,38.3L69.2,0H79.6z"/>
				<path class="st0" d="M127.8,0v57.9h9.1v9.6H109v-9.6h9.1V9.6H109V0H127.8z"/>
			</g>
		</g>
	</g>
</g>
</svg>
