<?xml version="1.0" encoding="utf-8"?>
<!-- Generator: Adobe Illustrator 22.1.0, SVG Export Plug-In . SVG Version: 6.00 Build 0)  -->
<svg version="1.1" id="レイヤー_1" xmlns="http://www.w3.org/2000/svg" xmlns:xlink="http://www.w3.org/1999/xlink" x="0px"
	 y="0px" viewBox="0 0 136.9 68.5" style="enable-background:new 0 0 136.9 68.5;" xml:space="preserve">
<style type="text/css">
	.st0{fill:#F7F8F8;}
</style>
<title>day2-logo</title>
<g id="レイヤー_2_1_">
	<g id="レイヤー_1-2">
		<g id="DAY2">
			<g id="DAY2-2">
				<path class="st0" d="M0,1.1h15c8.6,0,13,4.7,13,14.2v39.1c0,9.4-4.5,14.1-13.6,14.2H0V1.1z M9.7,10.7V59H14
					c2.8,0,4.2-1.5,4.2-4.6V15.3c0-3.1-1.4-4.6-4.2-4.6C14,10.7,9.7,10.7,9.7,10.7z"/>
				<path class="st0" d="M63.3,44.6l3.2,23.9h-9.8l-1.9-14.3h-9.9L43,68.5h-9.8l3.2-23.8l6.9-43.6h13.3L63.3,44.6z M53.5,44.6
					l-3.7-28l-3.7,28H53.5z"/>
				<path class="st0" d="M79.5,1.1l6.6,26.3l6.6-26.3H103L91.3,39.3L91,40.1v28.4h-9.7V40.2L81,39.3L69.2,1.1H79.5z"/>
				<path class="st0" d="M109,54.1c0-6,3-11.3,9-15.6s9-8,9.1-11V14.2c0-3-1.4-4.6-4.2-4.6h-0.1c-2.8,0-4.2,1.5-4.2,4.6v9H109v-9
					C109,4.7,113.6,0,122.9,0s13.9,4.7,14,14.2v13.5c0,6.2-3,11.4-9.1,15.8s-9.1,8.2-9.1,11.4V59h18.2v9.6H109V54.1z"/>
			</g>
		</g>
	</g>
</g>
</svg>
